<svg width="100" height="100" viewBox="0 0 100 100" fill="none" xmlns="http://www.w3.org/2000/svg">
  <!-- Top left decorative circle -->
  <circle cx="15" cy="15" r="7" stroke="#1F2937" stroke-width="5" fill="none"/>
  
  <!-- Bottom right decorative circle -->
  <circle cx="85" cy="85" r="5" stroke="#1F2937" stroke-width="3.5" fill="none"/>
  
  <!-- Top right curved corner -->
  <path d="M70 5 C85 5, 95 15, 95 30 L95 40 C95 43, 93 45, 90 45 L80 45 C77 45, 75 43, 75 40 L75 30 C75 15, 85 5, 95 5" 
        stroke="#1F2937" stroke-width="5" fill="none" stroke-linecap="round"/>
  
  <!-- Main lotus flower design -->
  <!-- Center circle -->
  <circle cx="50" cy="50" r="11" stroke="#1F2937" stroke-width="5" fill="none"/>
  
  <!-- Cross pattern inside center -->
  <path d="M45 45 L45 50 L40 50" stroke="#1F2937" stroke-width="3.5" stroke-linecap="round"/>
  <path d="M55 55 L55 50 L60 50" stroke="#1F2937" stroke-width="3.5" stroke-linecap="round"/>
  
  <!-- Top petal -->
  <path d="M50 39 C45 32, 45 20, 50 16 C55 20, 55 32, 50 39" 
        stroke="#1F2937" stroke-width="5" fill="none" stroke-linejoin="round" stroke-linecap="round"/>
  
  <!-- Top right petal -->
  <path d="M61 39 C68 33, 80 33, 84 39 C80 45, 68 45, 61 39" 
        stroke="#1F2937" stroke-width="5" fill="none" stroke-linejoin="round" stroke-linecap="round"/>
  
  <!-- Bottom right petal -->
  <path d="M61 61 C68 67, 80 67, 84 61 C80 55, 68 55, 61 61" 
        stroke="#1F2937" stroke-width="5" fill="none" stroke-linejoin="round" stroke-linecap="round"/>
  
  <!-- Bottom petal -->
  <path d="M50 61 C55 68, 55 80, 50 84 C45 80, 45 68, 50 61" 
        stroke="#1F2937" stroke-width="5" fill="none" stroke-linejoin="round" stroke-linecap="round"/>
  
  <!-- Bottom left petal -->
  <path d="M39 61 C32 67, 20 67, 16 61 C20 55, 32 55, 39 61" 
        stroke="#1F2937" stroke-width="5" fill="none" stroke-linejoin="round" stroke-linecap="round"/>
  
  <!-- Top left petal -->
  <path d="M39 39 C32 33, 20 33, 16 39 C20 45, 32 45, 39 39" 
        stroke="#1F2937" stroke-width="5" fill="none" stroke-linejoin="round" stroke-linecap="round"/>
</svg>