<svg viewBox="0 0 120 120" fill="none" xmlns="http://www.w3.org/2000/svg">
  <defs>
    <linearGradient id="primaryGradient" x1="0%" y1="0%" x2="100%" y2="100%">
      <stop offset="0%" style="stop-color:#3B82F6;stop-opacity:1" />
      <stop offset="100%" style="stop-color:#1D4ED8;stop-opacity:1" />
    </linearGradient>
    <linearGradient id="accentGradient" x1="0%" y1="0%" x2="100%" y2="100%">
      <stop offset="0%" style="stop-color:#F59E0B;stop-opacity:1" />
      <stop offset="100%" style="stop-color:#D97706;stop-opacity:1" />
    </linearGradient>
  </defs>
  
  <!-- Main Circle -->
  <circle cx="60" cy="60" r="35" fill="url(#primaryGradient)"/>
  
  <!-- Inner Circle -->
  <circle cx="60" cy="60" r="25" fill="white" opacity="0.15"/>
  
  <!-- Letter C -->
  <path d="M45 60c0-12 8-20 20-20 6 0 11 2 15 6l-4 4c-3-3-7-5-11-5-8 0-14 6-14 15s6 15 14 15c4 0 8-2 11-5l4 4c-4 4-9 6-15 6-12 0-20-8-20-20z" fill="white"/>
  
  <!-- Healthcare Cross -->
  <g transform="translate(85, 35)">
    <rect x="-1" y="-3" width="2" height="6" rx="1" fill="url(#accentGradient)"/>
    <rect x="-3" y="-1" width="6" height="2" rx="1" fill="url(#accentGradient)"/>
  </g>
  
  <!-- Quebec Accent -->
  <g transform="translate(25, 85)">
    <path d="M0 0c2 0 3 1 3 3s-1 3-3 3-3-1-3-3 1-3 3-3z" fill="url(#accentGradient)"/>
    <path d="M0 -2c1 0 2 0.5 2 1.5s-1 1.5-2 1.5-2-0.5-2-1.5 1-1.5 2-1.5z" fill="url(#accentGradient)"/>
  </g>
</svg>