<svg viewBox="0 0 100 100" fill="none" xmlns="http://www.w3.org/2000/svg">
  <defs>
    <linearGradient id="quebecGradient" x1="0%" y1="0%" x2="100%" y2="100%">
      <stop offset="0%" style="stop-color:#003DA5;stop-opacity:1" />
      <stop offset="50%" style="stop-color:#0056D1;stop-opacity:1" />
      <stop offset="100%" style="stop-color:#003DA5;stop-opacity:1" />
    </linearGradient>
    <linearGradient id="heartGradient" x1="0%" y1="0%" x2="100%" y2="100%">
      <stop offset="0%" style="stop-color:#E31837;stop-opacity:1" />
      <stop offset="100%" style="stop-color:#FF4D6D;stop-opacity:1" />
    </linearGradient>
    <filter id="softShadow">
      <feDropShadow dx="0" dy="2" stdDeviation="3" flood-color="#000" flood-opacity="0.1"/>
    </filter>
  </defs>
  
  <!-- Quebec Blue Background Circle -->
  <circle cx="50" cy="50" r="48" fill="url(#quebecGradient)" filter="url(#softShadow)"/>
  
  <!-- CLAIR Text/Logo Element -->
  <rect x="25" y="30" width="50" height="8" rx="4" fill="white" opacity="0.9"/>
  <rect x="30" y="42" width="40" height="6" rx="3" fill="white" opacity="0.7"/>
  
  <!-- Healthcare Cross -->
  <rect x="46" y="25" width="8" height="30" rx="3" fill="white"/>
  <rect x="35" y="36" width="30" height="8" rx="3" fill="white"/>
  
  <!-- Quebec Care Heart -->
  <path d="M50 70c-2.5-2.5-7-5.5-7-9 0-2.2 1.8-4 4-4 1.3 0 2.4.6 3 1.5.6-1 1.7-1.5 3-1.5 2.2 0 4 1.8 4 4 0 3.5-4.5 6.5-7 9z" fill="url(#heartGradient)"/>
  
  <!-- Fleur-de-lis accent -->
  <g transform="translate(68, 25) scale(0.4)">
    <path d="M12 2c-1 0-2 1-2 2v3c0 1-1 2-2 2s-2-1-2-2V4c0-1-1-2-2-2s-2 1-2 2v3c0 3 2 5 5 5h2c3 0 5-2 5-5V4c0-1-1-2-2-2z" fill="white" opacity="0.8"/>
    <circle cx="8" cy="18" r="3" fill="white" opacity="0.8"/>
  </g>
  
  <!-- Innovation/AI dots -->
  <circle cx="30" cy="25" r="2" fill="#00D4AA" opacity="0.8"/>
  <circle cx="70" cy="65" r="2" fill="#00D4AA" opacity="0.8"/>
  <circle cx="25" cy="65" r="1.5" fill="#00D4AA" opacity="0.6"/>
</svg>